<svg width="24" height="24" viewBox="0 0 24 24" fill="none" xmlns="http://www.w3.org/2000/svg">
<path d="M2.30001 20.28L11.9 10.68L10.5 9.26L9.78001 9.97C9.68749 10.0627 9.5776 10.1363 9.45663 10.1864C9.33566 10.2366 9.20598 10.2624 9.07501 10.2624C8.94404 10.2624 8.81436 10.2366 8.69338 10.1864C8.57241 10.1363 8.46252 10.0627 8.37001 9.97L7.66001 9.26C7.5673 9.16749 7.49376 9.0576 7.44357 8.93663C7.39339 8.81565 7.36756 8.68597 7.36756 8.555C7.36756 8.42403 7.39339 8.29435 7.44357 8.17338C7.49376 8.0524 7.5673 7.94251 7.66001 7.85L13.32 2.19C13.4125 2.0973 13.5224 2.02375 13.6434 1.97357C13.7644 1.92339 13.894 1.89756 14.025 1.89756C14.156 1.89756 14.2857 1.92339 14.4066 1.97357C14.5276 2.02375 14.6375 2.0973 14.73 2.19L15.44 2.9C15.83 3.29 15.83 3.92 15.44 4.31L14.73 5L16.15 6.43C16.2425 6.3373 16.3524 6.26375 16.4734 6.21357C16.5944 6.16339 16.724 6.13756 16.855 6.13756C16.986 6.13756 17.1157 6.16339 17.2366 6.21357C17.3576 6.26375 17.4675 6.3373 17.56 6.43C17.95 6.82 17.95 7.46 17.56 7.85L18.97 9.26L19.68 8.55C20.07 8.16 20.71 8.16 21.1 8.55L21.8 9.26C22.19 9.65 22.19 10.29 21.8 10.68L16.15 16.33C15.76 16.72 15.12 16.72 14.73 16.33L14.03 15.63C13.9351 15.5377 13.8596 15.4274 13.808 15.3054C13.7565 15.1835 13.7299 15.0524 13.7299 14.92C13.7299 14.7876 13.7565 14.6565 13.808 14.5346C13.8596 14.4126 13.9351 14.3023 14.03 14.21L14.73 13.5L13.32 12.09L3.71001 21.7C3.61749 21.7927 3.50761 21.8663 3.38663 21.9164C3.26566 21.9666 3.13598 21.9924 3.00501 21.9924C2.87404 21.9924 2.74436 21.9666 2.62338 21.9164C2.50241 21.8663 2.39252 21.7927 2.30001 21.7C1.91001 21.31 1.91001 20.67 2.30001 20.28ZM20 19C20.5304 19 21.0391 19.2107 21.4142 19.5858C21.7893 19.9609 22 20.4696 22 21V22H12V21C12 20.4696 12.2107 19.9609 12.5858 19.5858C12.9609 19.2107 13.4696 19 14 19H20Z" fill="#254EB7"/>
</svg>
